<svg xmlns="http://www.w3.org/2000/svg" width="152" height="36" viewBox="0 0 152 36" fill="none"><path fill-rule="evenodd" clip-rule="evenodd" shape-rendering="auto" d="M9.3377 1.10735C7.16548 1.56237 5.10891 2.77471 3.73935 4.40751C0.363367 8.43232 0.755185 13.2777 4.93697 19.2173C6.44121 21.3539 9.83723 25.1605 10.6594 25.6315C11.1326 25.9026 11.6591 25.9279 12.163 25.7036C12.8912 25.3795 15.9355 22.0522 17.7351 19.6136C19.3478 17.4283 20.6883 14.796 21.1613 12.8857C22.0167 9.4313 21.0926 6.13205 18.5968 3.72972C17.293 2.4748 15.8091 1.6655 13.9114 1.17443C12.9338 0.921381 10.4026 0.884255 9.3377 1.10735ZM10.1587 5.28686C9.84389 5.40294 9.81753 5.55954 9.81753 7.31098V9.02784H7.9156C6.55004 9.02784 5.98483 9.05573 5.91131 9.12685C5.76768 9.26579 5.76768 11.9251 5.91131 12.0641C5.98483 12.1352 6.55004 12.1631 7.9156 12.1631H9.81753V13.836C9.81753 15.2168 9.84073 15.5411 9.95035 15.6924C10.0778 15.8685 10.1359 15.8758 11.4003 15.8758C13.186 15.8758 13.0585 16.0312 13.0585 13.8544V12.1631H14.9745C16.7816 12.1631 16.8956 12.154 16.9788 12.0035C17.1076 11.7707 17.0953 9.25317 16.9648 9.12685C16.8912 9.05573 16.326 9.02784 14.9605 9.02784H13.0585V7.26403C13.0585 5.72571 13.0405 5.48586 12.9178 5.38702C12.815 5.30443 12.4406 5.2692 11.5319 5.25674C10.847 5.24733 10.2291 5.26095 10.1587 5.28686Z" fill="#B41341"></path><path fill-rule="evenodd" clip-rule="evenodd" shape-rendering="auto" d="M2.62052 19.8802C2.48542 19.9194 2.28031 20.0369 2.16466 20.1413C1.73207 20.5322 1.71484 20.6342 1.71484 22.8023V24.8278H4.44408H7.17332V24.263V23.6984L6.46968 22.8391C6.08273 22.3665 5.40204 21.4882 4.95709 20.8874L4.14813 19.7949L3.50718 19.802C3.15469 19.8059 2.7557 19.8411 2.62052 19.8802ZM18.1698 20.7644C17.7814 21.2975 17.0864 22.205 16.6255 22.781L15.7875 23.8281V24.328V24.8278H18.5167H21.246L21.2673 23.6108C21.3093 21.2145 21.2782 20.799 21.0299 20.436C20.7266 19.9926 20.2588 19.799 19.4853 19.7967L18.876 19.7949L18.1698 20.7644ZM8.2819 28.1487L8.28207 30.4382H11.4804H14.6787V28.1693V25.9004H14.0977C13.5675 25.9004 13.4958 25.9214 13.279 26.1403C13.1483 26.2722 12.8072 26.4819 12.5209 26.6062C11.5591 27.0237 10.5523 26.8777 9.69206 26.1957C9.39159 25.9575 9.26263 25.9125 8.81094 25.8879L8.28173 25.8591L8.2819 28.1487ZM1.71484 28.1693V30.4382H4.44408H7.17332V28.1693V25.9004H4.44408H1.71484V28.1693ZM15.7875 29.99V34.0796L17.7278 34.0534C19.5689 34.0285 19.6877 34.0173 20.0519 33.8339C20.5892 33.5634 20.8113 33.3479 21.0432 32.8721C21.2439 32.4604 21.2443 32.4531 21.2451 29.18L21.246 25.9004H18.5167H15.7875V29.99ZM4.42276 31.4901L1.71484 31.5131V31.9922C1.71484 32.88 2.38052 33.7537 3.23085 33.9822C3.4056 34.0291 4.35453 34.0676 5.33961 34.0676L7.13067 34.0676L7.16129 32.748C7.17818 32.0221 7.17818 31.437 7.16129 31.4477C7.14449 31.4584 5.91215 31.4774 4.42276 31.4901ZM8.28207 32.769V34.0685H11.4804H14.6787V32.7916V31.5147L11.4804 31.4921L8.28198 31.4695L8.28207 32.769Z" fill="#AAA2A3"></path><path shape-rendering="auto" d="M147.631 29.0796V12.4256H150.513V29.0796H147.631Z" fill="#B41341"></path><path shape-rendering="auto" d="M138.938 29.3436C138.102 29.3436 137.376 29.2043 136.76 28.9256C136.144 28.6469 135.668 28.2509 135.33 27.7376C134.993 27.2096 134.824 26.6009 134.824 25.9116C134.824 25.2516 134.971 24.6649 135.264 24.1516C135.558 23.6236 136.012 23.1836 136.628 22.8316C137.244 22.4796 138.022 22.2303 138.96 22.0836L142.876 21.4456V23.6456L139.51 24.2176C138.938 24.3203 138.513 24.5036 138.234 24.7676C137.956 25.0316 137.816 25.3763 137.816 25.8016C137.816 26.2123 137.97 26.5423 138.278 26.7916C138.601 27.0263 138.997 27.1436 139.466 27.1436C140.068 27.1436 140.596 27.0189 141.05 26.7696C141.52 26.5056 141.879 26.1463 142.128 25.6916C142.392 25.2369 142.524 24.7383 142.524 24.1956V21.1156C142.524 20.6023 142.319 20.1769 141.908 19.8396C141.512 19.4876 140.984 19.3116 140.324 19.3116C139.708 19.3116 139.158 19.4803 138.674 19.8176C138.205 20.1403 137.86 20.5729 137.64 21.1156L135.286 19.9716C135.521 19.3409 135.888 18.7983 136.386 18.3436C136.9 17.8743 137.501 17.5076 138.19 17.2436C138.88 16.9796 139.628 16.8476 140.434 16.8476C141.417 16.8476 142.282 17.0309 143.03 17.3976C143.778 17.7496 144.358 18.2483 144.768 18.8936C145.194 19.5243 145.406 20.2649 145.406 21.1156V29.0796H142.678V27.0336L143.294 26.9896C142.986 27.5029 142.62 27.9356 142.194 28.2876C141.769 28.6249 141.285 28.8889 140.742 29.0796C140.2 29.2556 139.598 29.3436 138.938 29.3436Z" fill="#B41341"></path><path shape-rendering="auto" d="M128.17 29.3436C126.982 29.3436 125.911 29.0723 124.958 28.5296C124.019 27.9723 123.279 27.2243 122.736 26.2856C122.193 25.3323 121.922 24.2616 121.922 23.0736C121.922 21.8856 122.193 20.8223 122.736 19.8836C123.279 18.9449 124.019 18.2043 124.958 17.6616C125.911 17.1189 126.982 16.8476 128.17 16.8476C129.021 16.8476 129.813 17.0016 130.546 17.3096C131.279 17.6029 131.91 18.0136 132.438 18.5416C132.981 19.0549 133.369 19.6709 133.604 20.3896L131.074 21.4896C130.854 20.8883 130.48 20.4043 129.952 20.0376C129.439 19.6709 128.845 19.4876 128.17 19.4876C127.539 19.4876 126.975 19.6416 126.476 19.9496C125.992 20.2576 125.611 20.6829 125.332 21.2256C125.053 21.7683 124.914 22.3916 124.914 23.0956C124.914 23.7996 125.053 24.4229 125.332 24.9656C125.611 25.5083 125.992 25.9336 126.476 26.2416C126.975 26.5496 127.539 26.7036 128.17 26.7036C128.859 26.7036 129.461 26.5203 129.974 26.1536C130.487 25.7869 130.854 25.2956 131.074 24.6796L133.604 25.8236C133.369 26.4983 132.988 27.1069 132.46 27.6496C131.932 28.1776 131.301 28.5956 130.568 28.9036C129.835 29.1969 129.035 29.3436 128.17 29.3436Z" fill="#B41341"></path><path shape-rendering="auto" d="M114.348 29.3436C113.174 29.3436 112.104 29.0723 111.136 28.5296C110.182 27.9869 109.42 27.2463 108.848 26.3076C108.29 25.3689 108.012 24.2983 108.012 23.0956C108.012 21.8929 108.29 20.8223 108.848 19.8836C109.42 18.9449 110.182 18.2043 111.136 17.6616C112.089 17.1189 113.16 16.8476 114.348 16.8476C115.521 16.8476 116.584 17.1189 117.538 17.6616C118.491 18.2043 119.246 18.9449 119.804 19.8836C120.376 20.8076 120.662 21.8783 120.662 23.0956C120.662 24.2983 120.376 25.3689 119.804 26.3076C119.232 27.2463 118.469 27.9869 117.516 28.5296C116.562 29.0723 115.506 29.3436 114.348 29.3436ZM114.348 26.7036C114.993 26.7036 115.558 26.5496 116.042 26.2416C116.54 25.9336 116.929 25.5083 117.208 24.9656C117.501 24.4083 117.648 23.7849 117.648 23.0956C117.648 22.3916 117.501 21.7756 117.208 21.2476C116.929 20.7049 116.54 20.2796 116.042 19.9716C115.558 19.6489 114.993 19.4876 114.348 19.4876C113.688 19.4876 113.108 19.6489 112.61 19.9716C112.111 20.2796 111.715 20.7049 111.422 21.2476C111.143 21.7756 111.004 22.3916 111.004 23.0956C111.004 23.7849 111.143 24.4083 111.422 24.9656C111.715 25.5083 112.111 25.9336 112.61 26.2416C113.108 26.5496 113.688 26.7036 114.348 26.7036Z" fill="#B41341"></path><path shape-rendering="auto" d="M97.2324 29.0796V12.6896H100.224V26.4396H107.242V29.0796H97.2324Z" fill="#B41341"></path><path shape-rendering="auto" d="M86.1639 29.3436C84.9319 29.3436 83.8539 29.0649 82.9299 28.5076C82.0059 27.9503 81.2872 27.1949 80.7739 26.2416C80.2606 25.2883 80.0039 24.2323 80.0039 23.0736C80.0039 21.8709 80.2606 20.8076 80.7739 19.8836C81.3019 18.9449 82.0132 18.2043 82.9079 17.6616C83.8172 17.1189 84.8292 16.8476 85.9439 16.8476C86.8826 16.8476 87.7039 17.0016 88.4079 17.3096C89.1266 17.6176 89.7352 18.0429 90.2339 18.5856C90.7326 19.1283 91.1139 19.7516 91.3779 20.4556C91.6419 21.1449 91.7739 21.8929 91.7739 22.6996C91.7739 22.9049 91.7592 23.1176 91.7299 23.3376C91.7152 23.5576 91.6786 23.7483 91.6199 23.9096H82.3799V21.7096H89.9919L88.6279 22.7436C88.7599 22.0689 88.7232 21.4676 88.5179 20.9396C88.3272 20.4116 88.0046 19.9936 87.5499 19.6856C87.1099 19.3776 86.5746 19.2236 85.9439 19.2236C85.3426 19.2236 84.8072 19.3776 84.3379 19.6856C83.8686 19.9789 83.5092 20.4189 83.2599 21.0056C83.0252 21.5776 82.9372 22.2743 82.9959 23.0956C82.9372 23.8289 83.0326 24.4816 83.2819 25.0536C83.5459 25.6109 83.9272 26.0436 84.4259 26.3516C84.9392 26.6596 85.5259 26.8136 86.1859 26.8136C86.8459 26.8136 87.4032 26.6743 87.8579 26.3956C88.3272 26.1169 88.6939 25.7429 88.9579 25.2736L91.2899 26.4176C91.0552 26.9896 90.6886 27.4956 90.1899 27.9356C89.6912 28.3756 89.0972 28.7203 88.4079 28.9696C87.7332 29.2189 86.9852 29.3436 86.1639 29.3436Z" fill="#B41341"></path><path shape-rendering="auto" d="M74.1823 29.3436C72.9063 29.3436 71.7917 29.0429 70.8383 28.4416C69.8997 27.8256 69.2543 26.9969 68.9023 25.9556L71.0583 24.9216C71.3663 25.5963 71.7917 26.1243 72.3343 26.5056C72.8917 26.8869 73.5077 27.0776 74.1823 27.0776C74.7103 27.0776 75.1283 26.9603 75.4363 26.7256C75.7443 26.4909 75.8983 26.1829 75.8983 25.8016C75.8983 25.5669 75.8323 25.3763 75.7003 25.2296C75.583 25.0683 75.4143 24.9363 75.1943 24.8336C74.989 24.7163 74.7617 24.6209 74.5123 24.5476L72.5543 23.9976C71.5423 23.7043 70.7723 23.2569 70.2443 22.6556C69.731 22.0543 69.4743 21.3429 69.4743 20.5216C69.4743 19.7883 69.6577 19.1503 70.0243 18.6076C70.4057 18.0503 70.9263 17.6176 71.5863 17.3096C72.261 17.0016 73.031 16.8476 73.8963 16.8476C75.0257 16.8476 76.023 17.1189 76.8883 17.6616C77.7537 18.2043 78.3697 18.9669 78.7363 19.9496L76.5363 20.9836C76.331 20.4409 75.9863 20.0083 75.5023 19.6856C75.0183 19.3629 74.4757 19.2016 73.8743 19.2016C73.3903 19.2016 73.009 19.3116 72.7303 19.5316C72.4517 19.7516 72.3123 20.0376 72.3123 20.3896C72.3123 20.6096 72.371 20.8003 72.4883 20.9616C72.6057 21.1229 72.767 21.2549 72.9723 21.3576C73.1923 21.4603 73.4417 21.5556 73.7203 21.6436L75.6343 22.2156C76.617 22.5089 77.3723 22.9489 77.9003 23.5356C78.443 24.1223 78.7143 24.8409 78.7143 25.6916C78.7143 26.4103 78.5237 27.0483 78.1423 27.6056C77.761 28.1483 77.233 28.5736 76.5583 28.8816C75.8837 29.1896 75.0917 29.3436 74.1823 29.3436Z" fill="#B41341"></path><path shape-rendering="auto" d="M63.321 29.3436C62.045 29.3436 60.9303 29.0429 59.977 28.4416C59.0383 27.8256 58.393 26.9969 58.041 25.9556L60.197 24.9216C60.505 25.5963 60.9303 26.1243 61.473 26.5056C62.0303 26.8869 62.6463 27.0776 63.321 27.0776C63.849 27.0776 64.267 26.9603 64.575 26.7256C64.883 26.4909 65.037 26.1829 65.037 25.8016C65.037 25.5669 64.971 25.3763 64.839 25.2296C64.7217 25.0683 64.553 24.9363 64.333 24.8336C64.1277 24.7163 63.9003 24.6209 63.651 24.5476L61.693 23.9976C60.681 23.7043 59.911 23.2569 59.383 22.6556C58.8697 22.0543 58.613 21.3429 58.613 20.5216C58.613 19.7883 58.7963 19.1503 59.163 18.6076C59.5443 18.0503 60.065 17.6176 60.725 17.3096C61.3997 17.0016 62.1697 16.8476 63.035 16.8476C64.1643 16.8476 65.1617 17.1189 66.027 17.6616C66.8923 18.2043 67.5083 18.9669 67.875 19.9496L65.675 20.9836C65.4697 20.4409 65.125 20.0083 64.641 19.6856C64.157 19.3629 63.6143 19.2016 63.013 19.2016C62.529 19.2016 62.1477 19.3116 61.869 19.5316C61.5903 19.7516 61.451 20.0376 61.451 20.3896C61.451 20.6096 61.5097 20.8003 61.627 20.9616C61.7443 21.1229 61.9057 21.2549 62.111 21.3576C62.331 21.4603 62.5803 21.5556 62.859 21.6436L64.773 22.2156C65.7557 22.5089 66.511 22.9489 67.039 23.5356C67.5817 24.1223 67.853 24.8409 67.853 25.6916C67.853 26.4103 67.6623 27.0483 67.281 27.6056C66.8997 28.1483 66.3717 28.5736 65.697 28.8816C65.0223 29.1896 64.2303 29.3436 63.321 29.3436Z" fill="#B41341"></path><path shape-rendering="auto" d="M53.6641 29.0796V17.1116H56.5461V29.0796H53.6641ZM53.6641 15.7696V12.6896H56.5461V15.7696H53.6641Z" fill="#B41341"></path><path shape-rendering="auto" d="M45.3303 29.3436C44.4063 29.3436 43.5996 29.1382 42.9103 28.7276C42.2356 28.3169 41.715 27.7449 41.3483 27.0116C40.9963 26.2782 40.8203 25.4202 40.8203 24.4376V17.1116H43.7023V24.1956C43.7023 24.6942 43.7976 25.1342 43.9883 25.5156C44.1936 25.8822 44.4796 26.1756 44.8463 26.3956C45.2276 26.6009 45.653 26.7036 46.1223 26.7036C46.5916 26.7036 47.0096 26.6009 47.3763 26.3956C47.743 26.1756 48.029 25.8749 48.2343 25.4936C48.4396 25.1122 48.5423 24.6576 48.5423 24.1296V17.1116H51.4243V29.0796H48.6963V26.7256L48.9383 27.1436C48.6596 27.8769 48.1976 28.4269 47.5523 28.7936C46.9216 29.1602 46.181 29.3436 45.3303 29.3436Z" fill="#B41341"></path><path shape-rendering="auto" d="M33.3534 29.3436C32.3121 29.3436 31.3441 29.1529 30.4494 28.7716C29.5694 28.3903 28.8067 27.8623 28.1614 27.1876C27.5307 26.4983 27.0687 25.6989 26.7754 24.7896L29.2614 23.7116C29.6574 24.6503 30.2294 25.3909 30.9774 25.9336C31.7254 26.4616 32.5687 26.7256 33.5074 26.7256C34.0354 26.7256 34.4901 26.6449 34.8714 26.4836C35.2674 26.3076 35.5681 26.0729 35.7734 25.7796C35.9934 25.4863 36.1034 25.1343 36.1034 24.7236C36.1034 24.2396 35.9567 23.8436 35.6634 23.5356C35.3847 23.2129 34.9594 22.9636 34.3874 22.7876L31.2414 21.7756C29.9654 21.3796 29.0047 20.7856 28.3594 19.9936C27.7141 19.2016 27.3914 18.2703 27.3914 17.1996C27.3914 16.2609 27.6187 15.4323 28.0734 14.7136C28.5427 13.9949 29.1881 13.4376 30.0094 13.0416C30.8454 12.6309 31.7987 12.4256 32.8694 12.4256C33.8521 12.4256 34.7541 12.6016 35.5754 12.9536C36.3967 13.2909 37.1007 13.7676 37.6874 14.3836C38.2887 14.9849 38.7361 15.6963 39.0294 16.5176L36.5654 17.6176C36.2427 16.7963 35.7587 16.1656 35.1134 15.7256C34.4681 15.2709 33.7201 15.0436 32.8694 15.0436C32.3707 15.0436 31.9307 15.1316 31.5494 15.3076C31.1681 15.4689 30.8674 15.7036 30.6474 16.0116C30.4421 16.3049 30.3394 16.6569 30.3394 17.0676C30.3394 17.5223 30.4861 17.9256 30.7794 18.2776C31.0727 18.6149 31.5201 18.8789 32.1214 19.0696L35.1354 20.0156C36.4407 20.4409 37.4161 21.0276 38.0614 21.7756C38.7214 22.5236 39.0514 23.4476 39.0514 24.5476C39.0514 25.4863 38.8094 26.3149 38.3254 27.0336C37.8414 27.7523 37.1741 28.3169 36.3234 28.7276C35.4727 29.1383 34.4827 29.3436 33.3534 29.3436Z" fill="#B41341"></path></svg>